<?xml version="1.0" encoding="UTF-8"?>
<svg version="1.1" xmlns="http://www.w3.org/2000/svg" width="256" height="256">
<path d="M0 0 C84.48 0 168.96 0 256 0 C256 84.48 256 168.96 256 256 C171.52 256 87.04 256 0 256 C0 171.52 0 87.04 0 0 Z " fill="#000000" transform="translate(0,0)"/>
<path d="M0 0 C3.34090173 1.33636069 3.85053475 2.8363431 5.5 6 C6.27738464 8.07964578 6.97579108 10.18934639 7.625 12.3125 C7.82673828 12.96984131 8.02847656 13.62718262 8.23632812 14.30444336 C9.77547261 19.39703777 11.21490052 24.517501 12.6484375 29.640625 C12.84051788 30.32662277 13.03259827 31.01262054 13.23049927 31.71940613 C14.19871459 35.18186264 15.16108513 38.64578642 16.11376953 42.11254883 C18.29868373 50.01682743 20.72403496 57.79157131 23.35693359 65.55786133 C24.92132239 70.26873653 26.26203236 75.0233066 27.5625 79.8125 C30.94654019 92.08397848 34.43493753 104.32441282 37.9375 116.5625 C38.48772994 118.48607873 39.0379419 120.40966261 39.58813477 122.33325195 C40.8914044 126.88903106 42.19546636 131.44458269 43.5 136 C43.82033203 134.97116699 44.14066406 133.94233398 44.47070312 132.88232422 C48.39174127 120.30324595 48.39174127 120.30324595 50.34375 114.2578125 C53.4052184 104.77301645 56.37990806 95.30198279 58.81445312 85.63330078 C59.81884246 81.80204145 60.67273741 78.81926198 63.5 76 C66.28735352 75.51416016 66.28735352 75.51416016 69.62890625 75.5390625 C70.82837891 75.54292969 72.02785156 75.54679687 73.26367188 75.55078125 C74.51728516 75.57527344 75.77089844 75.59976563 77.0625 75.625 C78.31998047 75.62628906 79.57746094 75.62757812 80.87304688 75.62890625 C90.21940352 75.71940352 90.21940352 75.71940352 92.5 78 C92.75 81 92.75 81 92.5 84 C90.5 86 90.5 86 88.34521484 86.22705078 C87.04124756 86.21134033 87.04124756 86.21134033 85.7109375 86.1953125 C84.76992187 86.18886719 83.82890625 86.18242187 82.859375 86.17578125 C81.87453125 86.15902344 80.8896875 86.14226562 79.875 86.125 C78.88242188 86.11597656 77.88984375 86.10695313 76.8671875 86.09765625 C74.41121866 86.07404116 71.95572832 86.04110799 69.5 86 C69.30096069 87.30565918 69.30096069 87.30565918 69.09790039 88.63769531 C68.54074099 91.77089222 67.80759642 94.73900139 66.93359375 97.796875 C66.61680664 98.90788574 66.30001953 100.01889648 65.97363281 101.16357422 C65.63170898 102.34709473 65.28978516 103.53061523 64.9375 104.75 C64.58397461 105.98121582 64.23044922 107.21243164 63.86621094 108.48095703 C61.09748193 118.066243 58.20279398 127.61039189 55.23364258 137.13549805 C53.10465132 143.97309145 51.10362693 150.82634017 49.2890625 157.75390625 C48.5 160 48.5 160 46.5 161 C44.50039988 161.039992 42.49952758 161.04346799 40.5 161 C35.64318552 150.55784887 32.93853717 139.17837737 29.75238037 128.14382935 C28.9698936 125.43387177 28.18497703 122.72461949 27.40026855 120.01530457 C27.00178747 118.63937436 26.6034306 117.26340817 26.2052002 115.8874054 C24.43655525 109.7767408 22.65772115 103.66907274 20.875 97.5625 C20.59422607 96.60045654 20.31345215 95.63841309 20.02416992 94.6472168 C19.46376549 92.72719572 18.90330056 90.8071923 18.34277344 88.88720703 C17.18744017 84.92922 16.03299946 80.9709729 14.87866211 77.01269531 C14.29629243 75.01590681 13.71377466 73.01916149 13.13110352 71.02246094 C11.63260817 65.88692676 10.13659142 60.75068906 8.64453125 55.61328125 C8.33773437 54.55818359 8.0309375 53.50308594 7.71484375 52.41601562 C7.137201 50.42927464 6.56030714 48.44231567 5.984375 46.45507812 C3.89696652 39.28024174 1.71324717 32.13695636 -0.5 25 C-1.56735462 28.62480735 -2.63439624 32.24970624 -3.70092773 35.87475586 C-4.61164643 38.96977997 -5.52412361 42.06427859 -6.43774414 45.15844727 C-8.53296907 52.26139163 -10.61511398 59.36626049 -12.6171875 66.49609375 C-12.92841553 67.59566406 -13.23964355 68.69523437 -13.56030273 69.828125 C-14.13306975 71.85839518 -14.69804496 73.89088425 -15.25415039 75.92578125 C-15.5093042 76.82554688 -15.76445801 77.7253125 -16.02734375 78.65234375 C-16.34819946 79.81237915 -16.34819946 79.81237915 -16.67553711 80.99584961 C-17.65834606 83.38491644 -18.37214683 84.51375141 -20.5 86 C-23.28735352 86.37231445 -23.28735352 86.37231445 -26.62890625 86.36328125 C-27.82837891 86.36263672 -29.02785156 86.36199219 -30.26367188 86.36132812 C-31.51728516 86.34521484 -32.77089844 86.32910156 -34.0625 86.3125 C-35.9487207 86.31733398 -35.9487207 86.31733398 -37.87304688 86.32226562 C-47.23311942 86.26688058 -47.23311942 86.26688058 -49.5 84 C-49.75 81 -49.75 81 -49.5 78 C-47.5 76 -47.5 76 -45.34521484 75.77294922 C-44.04124756 75.78865967 -44.04124756 75.78865967 -42.7109375 75.8046875 C-41.76992187 75.81113281 -40.82890625 75.81757812 -39.859375 75.82421875 C-38.87453125 75.84097656 -37.8896875 75.85773438 -36.875 75.875 C-35.38613281 75.88853516 -35.38613281 75.88853516 -33.8671875 75.90234375 C-31.41121866 75.92595884 -28.95572832 75.95889201 -26.5 76 C-26.26925781 75.030625 -26.03851563 74.06125 -25.80078125 73.0625 C-23.97087407 65.49563813 -21.95427153 58.05139084 -19.56762695 50.63671875 C-17.54942569 44.30225166 -15.77300966 37.90680597 -14 31.5 C-9.81877429 16.47580083 -9.81877429 16.47580083 -7.75 9.625 C-7.38390625 8.40039062 -7.0178125 7.17578125 -6.640625 5.9140625 C-5.17259858 2.16355666 -4.21298148 0 0 0 Z " fill="#09B9F3" transform="translate(106.5,48)"/>
<path d="M0 0 C0.33 0 0.66 0 1 0 C1.495 6.435 1.495 6.435 2 13 C1.34 13 0.68 13 0 13 C0.020625 14.216875 0.04125 15.43375 0.0625 16.6875 C0.05677761 19.91492629 -0.05638355 22.88606572 -1 26 C-5.4627831 28.23139155 -11.59910332 27.18499699 -16.5 27.1875 C-17.76199219 27.19974609 -19.02398437 27.21199219 -20.32421875 27.22460938 C-21.52691406 27.22654297 -22.72960937 27.22847656 -23.96875 27.23046875 C-25.63067383 27.23663208 -25.63067383 27.23663208 -27.32617188 27.24291992 C-30 27 -30 27 -32 25 C-32.125 21.875 -32.125 21.875 -32 19 C-28.94080612 17.98026871 -26.87581975 17.88466398 -23.67578125 17.90234375 C-22.64775391 17.90556641 -21.61972656 17.90878906 -20.56054688 17.91210938 C-18.95276367 17.92467773 -18.95276367 17.92467773 -17.3125 17.9375 C-16.22904297 17.94201172 -15.14558594 17.94652344 -14.02929688 17.95117188 C-11.35280915 17.96296257 -8.67643223 17.97941937 -6 18 C-6 17.34 -6 16.68 -6 16 C-5.34 16 -4.68 16 -4 16 C-3.814375 14.72125 -3.62875 13.4425 -3.4375 12.125 C-3.33308594 11.40570313 -3.22867188 10.68640625 -3.12109375 9.9453125 C-2.8315703 7.91859333 -2.8315703 7.91859333 -4 6 C-3.34 5.01 -2.68 4.02 -2 3 C-1.34 3 -0.68 3 0 3 C0 2.01 0 1.02 0 0 Z " fill="#06BBF7" transform="translate(89,107)"/>
<path d="M0 0 C2.19275205 3.28912808 2.95133026 5.95723221 3.98828125 9.765625 C4.17335739 10.43607849 4.35843353 11.10653198 4.54911804 11.79730225 C5.14205284 13.94682891 5.72794494 16.09818063 6.3125 18.25 C8.91221652 27.79664478 11.64932774 37.23137857 14.89404297 46.58129883 C16.63750193 51.97062682 17.84981825 57.45481479 19 63 C14.18167586 59.67543295 14.18167586 59.67543295 13.36328125 56.6328125 C13.34652344 55.80523437 13.32976562 54.97765625 13.3125 54.125 C13.10386141 50.06548917 12.42679364 46.83450792 11 43 C10.835 42.071875 10.67 41.14375 10.5 40.1875 C10.2525 39.1046875 10.2525 39.1046875 10 38 C9.34 37.67 8.68 37.34 8 37 C8 34.36 8 31.72 8 29 C6.35 28.67 4.7 28.34 3 28 C3 29.98 3 31.96 3 34 C3.66 34.33 4.32 34.66 5 35 C4.67 38.63 4.34 42.26 4 46 C2.15785607 43.2367841 1.39180037 41.38570236 0.4921875 38.25390625 C0.22792969 37.33416016 -0.03632812 36.41441406 -0.30859375 35.46679688 C-0.57800781 34.50837891 -0.84742187 33.54996094 -1.125 32.5625 C-1.40214844 31.60794922 -1.67929688 30.65339844 -1.96484375 29.66992188 C-2.22652344 28.74888672 -2.48820312 27.82785156 -2.7578125 26.87890625 C-2.9964502 26.0391626 -3.23508789 25.19941895 -3.48095703 24.33422852 C-4 22 -4 22 -4 18 C-3.01 17.67 -2.02 17.34 -1 17 C0.02281518 14.90280128 0.02281518 14.90280128 0.6875 12.4375 C0.93886719 11.61121094 1.19023438 10.78492187 1.44921875 9.93359375 C1.63097656 9.29550781 1.81273438 8.65742187 2 8 C1.34 8 0.68 8 0 8 C0 5.36 0 2.72 0 0 Z " fill="#0DB5ED" transform="translate(115,67)"/>
<path d="M0 0 C0.33 0.66 0.66 1.32 1 2 C1.66 2 2.32 2 3 2 C3 4.64 3 7.28 3 10 C3.99 10.33 4.98 10.66 6 11 C6.13277344 11.71027344 6.26554687 12.42054687 6.40234375 13.15234375 C6.57894531 14.07144531 6.75554687 14.99054688 6.9375 15.9375 C7.11152344 16.85402344 7.28554687 17.77054688 7.46484375 18.71484375 C7.77714988 20.95289844 7.77714988 20.95289844 9 22 C9.50104005 25.60748837 9.15319133 26.7845747 7 29.8125 C6.34 30.534375 5.68 31.25625 5 32 C4.34 31.67 3.68 31.34 3 31 C2.375 28.4375 2.375 28.4375 2 26 C1.34 26 0.68 26 0 26 C-1.56401559 21.30795322 -0.96087686 16.57316558 -0.83984375 11.6640625 C-0.99021694 8.22381731 -1.49517112 6.05686808 -3 3 C-2.01 2.01 -1.02 1.02 0 0 Z " fill="#04BDF9" transform="translate(120,94)"/>
<path d="M0 0 C1.14981574 3.80323668 0.51561044 5.34470424 -1 9 C-1.22482293 12.14752098 -1.00755762 13.97732714 0 17 C-0.99 19.97 -1.98 22.94 -3 26 C-11.58 26 -20.16 26 -29 26 C-28.67 25.34 -28.34 24.68 -28 24 C-21.07 24 -14.14 24 -7 24 C-6.401875 21.525 -5.80375 19.05 -5.1875 16.5 C-3.7944319 10.83382578 -2.24877872 5.39706892 0 0 Z " fill="#12B7EB" transform="translate(87,100)"/>
<path d="M0 0 C1.125 3.75 1.125 3.75 0 6 C0.66 6.33 1.32 6.66 2 7 C1.54625 7.495 1.0925 7.99 0.625 8.5 C-1.58159367 11.89475949 -2.14391425 15.04883498 -3 19 C-2.34 19 -1.68 19 -1 19 C-1.33 20.32 -1.66 21.64 -2 23 C-2.99 23 -3.98 23 -5 23 C-5 24.32 -5 25.64 -5 27 C-9.68965706 28.11658501 -12.53763531 27.80619523 -17 26 C-16.34 24.68 -15.68 23.36 -15 22 C-14.67 22.66 -14.34 23.32 -14 24 C-11.36 24 -8.72 24 -6 24 C-5.72736328 22.65808594 -5.72736328 22.65808594 -5.44921875 21.2890625 C-3.94906647 14.07294538 -2.2778669 7.01130664 0 0 Z " fill="#041527" transform="translate(161,184)"/>
<path d="M0 0 C0.33 0.66 0.66 1.32 1 2 C1.66 2 2.32 2 3 2 C3.37851209 7.93002267 2.10575375 12.47239641 0 18 C-0.66 18 -1.32 18 -2 18 C-2.8730145 14.95853012 -3.19215584 12.16214741 -3.25 9 C-3.27578125 8.154375 -3.3015625 7.30875 -3.328125 6.4375 C-2.93637521 3.52735872 -1.91578046 2.1779399 0 0 Z " fill="#05BBF9" transform="translate(136,150)"/>
<path d="M0 0 C0.33 0 0.66 0 1 0 C1 1.98 1 3.96 1 6 C1.66 6 2.32 6 3 6 C3.39253254 10.44870215 2.15305957 13.14243493 0 17 C-0.99 16.67 -1.98 16.34 -3 16 C-3.19466332 14.20909747 -3.38051213 12.41723495 -3.5625 10.625 C-3.66691406 9.62726563 -3.77132812 8.62953125 -3.87890625 7.6015625 C-4 5 -4 5 -3 3 C-2.34 3 -1.68 3 -1 3 C-0.67 2.01 -0.34 1.02 0 0 Z " fill="#02C0FA" transform="translate(114,69)"/>
<path d="M0 0 C2.41288238 1.79020306 3.83777634 3.16007565 4.41796875 6.1640625 C4.55341589 7.73320481 4.65757412 9.30544061 4.7265625 10.87890625 C4.87911366 13.29941647 4.87911366 13.29941647 7 16 C7.92650939 18.93005351 8.5304075 21.93669853 9.1875 24.9375 C9.37763672 25.74896484 9.56777344 26.56042969 9.76367188 27.39648438 C9.93833984 28.18216797 10.11300781 28.96785156 10.29296875 29.77734375 C10.4530542 30.49140381 10.61313965 31.20546387 10.77807617 31.94116211 C11.02304943 34.21383485 10.67946622 35.83235338 10 38 C9.80365967 37.32533691 9.60731934 36.65067383 9.4050293 35.95556641 C8.49960674 32.84525501 7.59355684 29.73512668 6.6875 26.625 C6.37876953 25.56410156 6.07003906 24.50320312 5.75195312 23.41015625 C5.44580078 22.35957031 5.13964844 21.30898437 4.82421875 20.2265625 C4.36861572 18.65890137 4.36861572 18.65890137 3.90380859 17.05957031 C3.3176305 15.07524188 2.71721954 13.09504115 2.10009766 11.12011719 C1.82601074 10.24258789 1.55192383 9.36505859 1.26953125 8.4609375 C1.02436768 7.69313965 0.7792041 6.9253418 0.52661133 6.13427734 C0 4 0 4 0 0 Z " fill="#19ABD7" transform="translate(121,120)"/>
<path d="M0 0 C2.15141991 3.84038507 3.33723494 7.93976355 4.625 12.125 C4.85445312 12.85332031 5.08390625 13.58164063 5.3203125 14.33203125 C7 19.74102493 7 19.74102493 7 22 C6.34 22 5.68 22 5 22 C4.54625 21.030625 4.0925 20.06125 3.625 19.0625 C2.34213779 15.92920418 2.34213779 15.92920418 0 15 C-1.7260313 10.13572999 -0.63100949 4.99953676 0 0 Z " fill="#13A9DC" transform="translate(139,149)"/>
<path d="M0 0 C2.4056198 3.84899168 2.71267364 7.54644135 3 12 C1 14 1 14 -1.625 14.125 C-2.40875 14.08375 -3.1925 14.0425 -4 14 C-3.52525225 11.85318469 -3.04508251 9.70756772 -2.5625 7.5625 C-2.29566406 6.36753906 -2.02882813 5.17257813 -1.75390625 3.94140625 C-1 1 -1 1 0 0 Z " fill="#020F16" transform="translate(106,72)"/>
<path d="M0 0 C2.27032597 2.27032597 2.61795635 3.56120106 3.47265625 6.61328125 C3.73240234 7.53173828 3.99214844 8.45019531 4.25976562 9.39648438 C4.52466797 10.35876953 4.78957031 11.32105469 5.0625 12.3125 C5.33126953 13.26318359 5.60003906 14.21386719 5.87695312 15.19335938 C7.0686318 19.44595832 8.17373198 23.65930637 9 28 C6.5625 26.625 6.5625 26.625 4 24 C3.4620453 21.46640688 3.30806936 19.03841258 3.17578125 16.453125 C2.95806899 13.41482949 1.99750999 10.86784121 1 8 C0.56248118 5.33599654 0.27801698 2.6874975 0 0 Z " fill="#18A2CD" transform="translate(125,102)"/>
<path d="M0 0 C0.66 0.33 1.32 0.66 2 1 C2.125 3.875 2.125 3.875 2 7 C0 9 0 9 -2.15478516 9.22705078 C-3.02409668 9.21657715 -3.8934082 9.20610352 -4.7890625 9.1953125 C-5.73007813 9.18886719 -6.67109375 9.18242187 -7.640625 9.17578125 C-8.62546875 9.15902344 -9.6103125 9.14226562 -10.625 9.125 C-11.61757812 9.11597656 -12.61015625 9.10695312 -13.6328125 9.09765625 C-16.08878134 9.07404116 -18.54427168 9.04110799 -21 9 C-21.12375 9.928125 -21.2475 10.85625 -21.375 11.8125 C-22 15 -22 15 -24 18 C-24.18311068 13.9715651 -23.94158017 11.51624755 -22 8 C-21.40985107 7.97494385 -20.81970215 7.9498877 -20.21166992 7.92407227 C-17.53673186 7.80799948 -14.8621362 7.68532428 -12.1875 7.5625 C-11.25873047 7.52318359 -10.32996094 7.48386719 -9.37304688 7.44335938 C-8.48037109 7.40146484 -7.58769531 7.35957031 -6.66796875 7.31640625 C-5.84578857 7.27974854 -5.0236084 7.24309082 -4.17651367 7.20532227 C-1.82094822 7.06572228 -1.82094822 7.06572228 1 6 C0.67 4.02 0.34 2.04 0 0 Z " fill="#20B1DC" transform="translate(197,125)"/>
<path d="M0 0 C1.98 0.66 3.96 1.32 6 2 C5.67 5.96 5.34 9.92 5 14 C2.99006295 10.98509443 2.27376659 8.7850073 1.375 5.3125 C1.11460938 4.31863281 0.85421875 3.32476562 0.5859375 2.30078125 C0.39257812 1.54152344 0.19921875 0.78226562 0 0 Z " fill="#13AADF" transform="translate(114,99)"/>
<path d="M0 0 C1.3721192 3.70472184 0.4863484 5.44927883 -1 9 C-1.185625 10.6396875 -1.185625 10.6396875 -1.375 12.3125 C-2.12703256 16.7494921 -3.82463013 20.10457023 -6 24 C-7.32017656 21.35964688 -6.7234601 20.52005019 -5.8203125 17.75390625 C-5.55089844 16.91666016 -5.28148438 16.07941406 -5.00390625 15.21679688 C-4.71386719 14.34087891 -4.42382812 13.46496094 -4.125 12.5625 C-3.84269531 11.69044922 -3.56039062 10.81839844 -3.26953125 9.91992188 C-2.19525762 6.60800248 -1.10103674 3.30311021 0 0 Z " fill="#1CA0C7" transform="translate(87,100)"/>
<path d="M0 0 C1.17881287 3.68379022 1.21358801 7.15541573 1 11 C0.34 11.66 -0.32 12.32 -1 13 C-0.979375 14.155 -0.95875 15.31 -0.9375 16.5 C-0.958125 17.655 -0.97875 18.81 -1 20 C-1.99 20.66 -2.98 21.32 -4 22 C-3.71507769 19.64484432 -3.42225086 17.29110566 -3.125 14.9375 C-3.04636719 14.28072266 -2.96773438 13.62394531 -2.88671875 12.94726562 C-2.31282513 8.4664808 -1.33592224 4.31648825 0 0 Z " fill="#12AFDF" transform="translate(91,85)"/>
<path d="M0 0 C0.93065133 2.60582371 1.14917407 3.64198224 0.0625 6.25 C-0.4634375 7.11625 -0.4634375 7.11625 -1 8 C-2.32 8 -3.64 8 -5 8 C-5.1875 5.125 -5.1875 5.125 -5 2 C-2 0 -2 0 0 0 Z " fill="#01BFFB" transform="translate(146,179)"/>
<path d="M0 0 C1.33201473 2.66402946 0.69751146 3.5586384 -0.21484375 6.3515625 C-0.48876953 7.20234375 -0.76269531 8.053125 -1.04492188 8.9296875 C-1.48674805 10.26386719 -1.48674805 10.26386719 -1.9375 11.625 C-2.22818359 12.5221875 -2.51886719 13.419375 -2.81835938 14.34375 C-3.53899834 16.56473565 -4.26645605 18.78324979 -5 21 C-5.33 21 -5.66 21 -6 21 C-6.05399736 19.54207116 -6.09279177 18.08357288 -6.125 16.625 C-6.15980469 15.40683594 -6.15980469 15.40683594 -6.1953125 14.1640625 C-6 12 -6 12 -4 10 C-3.42440161 8.49903768 -2.90869583 6.97443718 -2.4375 5.4375 C-1.09722222 1.09722222 -1.09722222 1.09722222 0 0 Z " fill="#021829" transform="translate(86,101)"/>
<path d="M0 0 C0.33 0 0.66 0 1 0 C1 4.29 1 8.58 1 13 C-0.32 13.33 -1.64 13.66 -3 14 C-2.28547412 9.23649415 -1.20465156 4.65798604 0 0 Z " fill="#15ADDD" transform="translate(164,138)"/>
<path d="M0 0 C0.66 0.33 1.32 0.66 2 1 C1.125 5.875 1.125 5.875 0 7 C-0.36760731 9.32817964 -0.70241581 11.6618385 -1 14 C-1.66 14 -2.32 14 -3 14 C-2.48594831 9.03083364 -1.76615118 4.70973649 0 0 Z " fill="#03192F" transform="translate(170,154)"/>
<path d="M0 0 C1 4 1 4 0 6 C0.66 6.33 1.32 6.66 2 7 C1.2884375 7.8353125 1.2884375 7.8353125 0.5625 8.6875 C-1.12395996 11.18346074 -1.58953107 13.0446237 -2 16 C-2.66 16 -3.32 16 -4 16 C-2.68 10.72 -1.36 5.44 0 0 Z " fill="#042C3F" transform="translate(161,184)"/>
<path d="M0 0 C1.96301592 3.50538557 2.95902388 7.13351728 4 11 C2.0625 10.6875 2.0625 10.6875 0 10 C-1.231394 6.30581799 -0.64432764 3.7943739 0 0 Z " fill="#031629" transform="translate(115,104)"/>
<path d="M0 0 C2.625 0.375 2.625 0.375 5 1 C4.01 1.33 3.02 1.66 2 2 C2 2.66 2 3.32 2 4 C1.34 4 0.68 4 0 4 C-1.62514468 5.45833358 -1.62514468 5.45833358 -3 7 C-2.25 2.25 -2.25 2.25 0 0 Z " fill="#19A8D6" transform="translate(104,48)"/>
<path d="M0 0 C1.1875 1.6875 1.1875 1.6875 2 4 C0.6875 6.4375 0.6875 6.4375 -1 9 C-1.70670728 11.69254991 -1.70670728 11.69254991 -2 14 C-2.66 14 -3.32 14 -4 14 C-3.52372025 12.04096255 -3.04388577 10.08278903 -2.5625 8.125 C-2.29566406 7.03445312 -2.02882812 5.94390625 -1.75390625 4.8203125 C-1 2 -1 2 0 0 Z " fill="#032841" transform="translate(175,138)"/>
<path d="M0 0 C0.66 0 1.32 0 2 0 C4.62886598 6.30927835 4.62886598 6.30927835 5 9 C4.34 9.66 3.68 10.32 3 11 C2.01 7.37 1.02 3.74 0 0 Z " fill="#041A2C" transform="translate(123,93)"/>
<path d="M0 0 C0.99 0.33 1.98 0.66 3 1 C1.68 4.96 0.36 8.92 -1 13 C-1.96697501 9.13209997 -1.979595 7.91837998 -1.0625 4.25 C-0.86785156 3.45078125 -0.67320313 2.6515625 -0.47265625 1.828125 C-0.31667969 1.22484375 -0.16070312 0.6215625 0 0 Z " fill="#031D2C" transform="translate(100,48)"/>
<path d="M0 0 C1.65 0 3.3 0 5 0 C3.68 0.33 2.36 0.66 1 1 C0.87625 1.928125 0.7525 2.85625 0.625 3.8125 C0 7 0 7 -2 10 C-2.17942163 6.05272412 -2.09350689 3.4019487 0 0 Z " fill="#1AA5D0" transform="translate(175,133)"/>
<path d="M0 0 C1.42944945 2.35438733 2.08661261 3.48032433 1.625 6.25 C1.41875 6.8275 1.2125 7.405 1 8 C0.01 7.67 -0.98 7.34 -2 7 C-1.34 4.69 -0.68 2.38 0 0 Z " fill="#032C4A" transform="translate(106,72)"/>
<path d="M0 0 C1.5 1.0625 1.5 1.0625 3 3 C3.1875 6.6875 3.1875 6.6875 3 10 C0.70366176 6.55549263 0.45983515 4.06187717 0 0 Z " fill="#1BA5CE" transform="translate(142,192)"/>
<path d="M0 0 C2.29633824 3.44450737 2.54016485 5.93812283 3 10 C2.67 9.34 2.34 8.68 2 8 C1.34 8 0.68 8 0 8 C0 5.36 0 2.72 0 0 Z " fill="#189EC9" transform="translate(115,67)"/>
</svg>
