<svg width="150" height="40" viewBox="0 0 150 40" fill="none" xmlns="http://www.w3.org/2000/svg"><path d="M28.32 6.2H19.5V33.79H28.32V26.84H37.73V33.79H46.55V6.2H37.73V13.15H28.32V6.2ZM57.51 33.79V6.2H66.33V33.79H57.51ZM82.25 34C75.49 34 71.5 28.94 71.5 20C71.5 11.06 75.49 6 82.25 6C89.01 6 93 11.06 93 20C93 28.94 89.01 34 82.25 34ZM82.25 27.25C85.64 27.25 87.01 23.81 87.01 20C87.01 16.19 85.64 12.75 82.25 12.75C78.86 12.75 77.49 16.19 77.49 20C77.49 23.81 78.86 27.25 82.25 27.25ZM112.56 33.79L103.94 19.3V33.79H95.23V6.2H104.2L112.82 20.5V6.2H121.53V33.79H112.56ZM139.88 33.79V6.2H148.7V33.79H139.88Z" fill="hsl(240, 50%, 60%)"/></svg>