<svg width="150" height="40" viewBox="0 0 150 40" fill="none" xmlns="http://www.w3.org/2000/svg"><path d="M24.11 33.79V6.2H32.93V33.79H24.11ZM50.84 33.79L42.76 6.2H52.36L56.47 23.21L60.58 6.2H70.18L62.09 33.79H50.84ZM86.81 34C80.05 34 76.06 28.94 76.06 20C76.06 11.06 80.05 6 86.81 6C90.71 6 93.52 7.84 95.07 10.83L89.41 13.5C88.87 12.53 88.07 12.18 86.84 12.18C84.21 12.18 82.64 14.33 82.64 17.38H95.51C95.59 17.92 95.62 18.52 95.62 19.18C95.62 26.84 91.98 34 86.81 34ZM82.67 23.65C83.64 26.24 85.28 27.82 86.84 27.82C88.4 27.82 90.08 26.24 91.05 23.65H82.67ZM109.81 33.79V13.3H103.89V6.2H121.74V13.3H115.82V33.79H109.81ZM136.19 33.79L128.11 6.2H137.71L141.82 23.21L145.93 6.2H155.53L147.31 33.79H136.19Z" fill="currentColor"/></svg>