<svg width="150" height="40" viewBox="0 0 150 40" fill="none" xmlns="http://www.w3.org/2000/svg"><path d="M24.08 33.79V6.2H46.17V12.7H32.63V14.47H45.91V20.46H32.63V22.24H46.17V33.79H24.08ZM62.33 33.79V6.2H71.15V33.79H62.33ZM88.07 34C81.31 34 77.32 28.94 77.32 20C77.32 11.06 81.31 6 88.07 6C94.83 6 98.82 11.06 98.82 20C98.82 28.94 94.83 34 88.07 34ZM88.07 27.25C91.46 27.25 92.83 23.81 92.83 20C92.83 16.19 91.46 12.75 88.07 12.75C84.68 12.75 83.31 16.19 83.31 20C83.31 23.81 84.68 27.25 88.07 27.25ZM119.53 33.79L111.45 13.04L119.39 6.2H108.52L104.41 12.23L100.3 6.2H89.43L97.37 13.04L89.29 33.79H100.44L104.41 21.32L108.38 33.79H119.53ZM134.19 33.79L126.11 6.2H135.71L139.82 23.21L143.93 6.2H153.53L145.31 33.79H134.19Z" fill="hsl(10, 80%, 50%)"/></svg>