<svg width="150" height="40" viewBox="0 0 150 40" fill="none" xmlns="http://www.w3.org/2000/svg"><path d="M24.26 33.79V6.2H33.33V26.84H42.74V33.79H24.26ZM58.38 33.79V6.2H75.5V12.7H66.93V14.47H75.24V20.46H66.93V22.24H75.5V33.79H58.38ZM92.14 34C85.38 34 81.39 28.94 81.39 20C81.39 11.06 85.38 6 92.14 6C98.9 6 102.89 11.06 102.89 20C102.89 28.94 98.9 34 92.14 34ZM92.14 27.25C95.53 27.25 96.9 23.81 96.9 20C96.9 16.19 95.53 12.75 92.14 12.75C88.75 12.75 87.38 16.19 87.38 20C87.38 23.81 88.75 27.25 92.14 27.25ZM118.01 33.79V6.2H126.83V33.79H118.01Z" fill="hsl(192, 100%, 45%)"/></svg>