<svg width="150" height="40" viewBox="0 0 150 40" fill="none" xmlns="http://www.w3.org/2000/svg"><path d="M23.63 34C16.87 34 12.88 28.94 12.88 20C12.88 11.06 16.87 6 23.63 6C27.53 6 30.34 7.84 31.81 10.83L26.15 13.5C25.61 12.53 24.81 12.18 23.66 12.18C21.03 12.18 19.46 14.33 19.46 17.38H32.25C32.33 17.92 32.36 18.52 32.36 19.18C32.36 26.84 28.72 34 23.63 34ZM19.49 23.65C20.46 26.24 22.1 27.82 23.66 27.82C25.22 27.82 26.9 26.24 27.87 23.65H19.49ZM50.05 33.79V6.2H58.87V33.79H50.05ZM76.73 33.79L68.51 6.2H78.11L82.22 23.21L86.33 6.2H95.93L87.71 33.79H76.73ZM112.11 34C105.35 34 101.36 28.94 101.36 20C101.36 11.06 105.35 6 112.11 6C118.87 6 122.86 11.06 122.86 20C122.86 28.94 118.87 34 112.11 34ZM112.11 27.25C115.5 27.25 116.87 23.81 116.87 20C116.87 16.19 115.5 12.75 112.11 12.75C108.72 12.75 107.35 16.19 107.35 20C107.35 23.81 108.72 27.25 112.11 27.25ZM136.21 33.79V13.3H130.29V6.2H148.14V13.3H142.22V33.79H136.21Z" fill="hsl(33, 94%, 55%)"/></svg>