<svg xmlns="http://www.w3.org/2000/svg" viewBox="0 0 1000 500" fill="currentColor">
<path d="M990,250 C990,117.5 882.5,10 750,10 S510,117.5 510,250 S617.5,490 750,490 S990,382.5 990,250 Z M750,480 C623.4,480 520,376.6 520,250 S623.4,20 750,20 S980,123.4 980,250 S876.6,480 750,480 Z"/>
<path d="M490,250c0-132.5-107.5-240-240-240S10,117.5,10,250s107.5,240,240,240S490,382.5,490,250z M250,30C123.4,30,20,133.4,20,250 s103.4,220,230,220s230-103.4,230-220S376.6,30,250,30z"/>
<path d="M500,250c0-132.5,107.5-240,240-240s240,107.5,240,240s-107.5,240-240,240S500,382.5,500,250z M740,480 C613.4,480,510,376.6,510,250c0-126.6,103.4-230,230-230c126.6,0,230,103.4,230,230C970,376.6,866.6,480,740,480z"/>
</svg> 